<?xml version="1.0" encoding="UTF-8"?>
<svg xmlns="http://www.w3.org/2000/svg" xmlns:xlink="http://www.w3.org/1999/xlink" width="37.5pt" height="37.499999pt" viewBox="0 0 37.5 37.499999" version="1.2">
<defs>
<clipPath id="clip1">
  <path d="M 21 14 L 35.894531 14 L 35.894531 36.730469 L 21 36.730469 Z M 21 14 "/>
</clipPath>
<clipPath id="clip2">
  <path d="M 33 14 L 35.894531 14 L 35.894531 17 L 33 17 Z M 33 14 "/>
</clipPath>
<clipPath id="clip3">
  <path d="M 1.464844 5 L 16 5 L 16 28 L 1.464844 28 Z M 1.464844 5 "/>
</clipPath>
<clipPath id="clip4">
  <path d="M 13 0.742188 L 18 0.742188 L 18 6 L 13 6 Z M 13 0.742188 "/>
</clipPath>
<clipPath id="clip5">
  <path d="M 9 0.742188 L 13 0.742188 L 13 5 L 9 5 Z M 9 0.742188 "/>
</clipPath>
<clipPath id="clip6">
  <path d="M 1.464844 5 L 4 5 L 4 8 L 1.464844 8 Z M 1.464844 5 "/>
</clipPath>
</defs>
<g id="surface1">
<g clip-path="url(#clip1)" clip-rule="nonzero">
<path style=" stroke:none;fill-rule:nonzero;fill:rgb(0%,0%,0%);fill-opacity:1;" d="M 27.355469 36.617188 C 27.351562 36.617188 27.351562 36.617188 27.355469 36.617188 C 24.128906 36.617188 23.269531 34.140625 23.269531 32.679688 C 23.269531 30.957031 24.042969 30.0625 24.726562 29.277344 C 25.34375 28.5625 25.878906 27.949219 25.878906 26.660156 C 25.878906 25.726562 25.007812 24.851562 24.082031 23.921875 C 22.902344 22.734375 21.566406 21.386719 21.566406 19.460938 C 21.566406 16.132812 23.761719 14.445312 28.09375 14.445312 C 31.828125 14.445312 35.820312 17.722656 35.820312 22.605469 C 35.820312 24.601562 35.414062 27.960938 34.257812 30.851562 C 32.75 34.625 30.363281 36.617188 27.355469 36.617188 Z M 27.355469 36.617188 "/>
</g>
<path style=" stroke:none;fill-rule:nonzero;fill:rgb(0%,0%,0%);fill-opacity:1;" d="M 22.027344 10.152344 C 21.816406 10.152344 21.609375 10.191406 21.410156 10.265625 C 20.328125 10.675781 19.84375 12.078125 20.324219 13.398438 C 20.714844 14.472656 21.625 15.160156 22.53125 15.160156 C 22.738281 15.160156 22.945312 15.125 23.148438 15.046875 C 24.226562 14.640625 24.710938 13.238281 24.234375 11.917969 C 23.839844 10.84375 22.933594 10.152344 22.027344 10.152344 Z M 22.027344 10.152344 "/>
<path style=" stroke:none;fill-rule:nonzero;fill:rgb(0%,0%,0%);fill-opacity:1;" d="M 26.433594 10.1875 C 26.402344 10.1875 26.371094 10.1875 26.339844 10.191406 C 25.605469 10.257812 25.082031 11.101562 25.171875 12.070312 C 25.253906 13 25.871094 13.710938 26.566406 13.710938 C 26.597656 13.710938 26.628906 13.707031 26.660156 13.707031 C 27.398438 13.636719 27.921875 12.796875 27.832031 11.824219 C 27.746094 10.894531 27.132812 10.1875 26.433594 10.1875 Z M 26.433594 10.1875 "/>
<path style=" stroke:none;fill-rule:nonzero;fill:rgb(0%,0%,0%);fill-opacity:1;" d="M 30.136719 11.011719 C 29.609375 11.011719 29.109375 11.570312 28.996094 12.320312 C 28.871094 13.125 29.230469 13.84375 29.800781 13.929688 C 29.839844 13.9375 29.875 13.941406 29.914062 13.941406 C 30.445312 13.941406 30.941406 13.382812 31.058594 12.632812 C 31.183594 11.828125 30.820312 11.109375 30.25 11.019531 C 30.214844 11.015625 30.175781 11.011719 30.136719 11.011719 Z M 30.136719 11.011719 "/>
<path style=" stroke:none;fill-rule:nonzero;fill:rgb(0%,0%,0%);fill-opacity:1;" d="M 33.035156 12.566406 C 32.660156 12.566406 32.25 12.8125 31.992188 13.230469 C 31.640625 13.804688 31.714844 14.492188 32.160156 14.765625 C 32.285156 14.839844 32.421875 14.875 32.5625 14.875 C 32.9375 14.875 33.347656 14.628906 33.605469 14.210938 C 33.957031 13.632812 33.882812 12.945312 33.4375 12.675781 C 33.3125 12.601562 33.175781 12.566406 33.035156 12.566406 Z M 33.035156 12.566406 "/>
<g clip-path="url(#clip2)" clip-rule="nonzero">
<path style=" stroke:none;fill-rule:nonzero;fill:rgb(0%,0%,0%);fill-opacity:1;" d="M 35.136719 14.324219 C 34.800781 14.324219 34.433594 14.546875 34.199219 14.921875 C 33.878906 15.441406 33.9375 16.058594 34.328125 16.300781 C 34.433594 16.367188 34.554688 16.398438 34.683594 16.398438 C 35.015625 16.398438 35.386719 16.175781 35.621094 15.800781 C 35.941406 15.28125 35.882812 14.664062 35.492188 14.421875 C 35.386719 14.355469 35.265625 14.324219 35.136719 14.324219 Z M 35.136719 14.324219 "/>
</g>
<g clip-path="url(#clip3)" clip-rule="nonzero">
<path style=" stroke:none;fill-rule:nonzero;fill:rgb(0%,0%,0%);fill-opacity:1;" d="M 10.074219 27.320312 C 7.0625 27.320312 4.675781 25.324219 3.167969 21.550781 C 2.015625 18.660156 1.605469 15.304688 1.605469 13.304688 C 1.605469 8.425781 5.601562 5.148438 9.332031 5.148438 C 13.664062 5.148438 15.863281 6.832031 15.863281 10.160156 C 15.863281 12.089844 14.523438 13.433594 13.34375 14.621094 C 12.421875 15.550781 11.546875 16.429688 11.546875 17.363281 C 11.546875 18.652344 12.082031 19.265625 12.699219 19.976562 C 13.382812 20.765625 14.160156 21.660156 14.160156 23.378906 C 14.160156 24.84375 13.296875 27.320312 10.074219 27.320312 Z M 10.074219 27.320312 "/>
</g>
<g clip-path="url(#clip4)" clip-rule="nonzero">
<path style=" stroke:none;fill-rule:nonzero;fill:rgb(0%,0%,0%);fill-opacity:1;" d="M 15.402344 0.855469 C 14.496094 0.855469 13.585938 1.542969 13.195312 2.617188 C 12.714844 3.9375 13.199219 5.339844 14.28125 5.75 C 14.484375 5.824219 14.691406 5.863281 14.898438 5.863281 C 15.804688 5.863281 16.710938 5.171875 17.101562 4.101562 C 17.582031 2.78125 17.097656 1.378906 16.019531 0.96875 C 15.816406 0.890625 15.609375 0.855469 15.402344 0.855469 Z M 15.402344 0.855469 "/>
</g>
<g clip-path="url(#clip5)" clip-rule="nonzero">
<path style=" stroke:none;fill-rule:nonzero;fill:rgb(0%,0%,0%);fill-opacity:1;" d="M 10.992188 0.886719 C 10.296875 0.886719 9.683594 1.597656 9.597656 2.527344 C 9.507812 3.496094 10.03125 4.339844 10.765625 4.40625 C 10.796875 4.410156 10.828125 4.410156 10.859375 4.410156 C 11.554688 4.410156 12.171875 3.703125 12.257812 2.773438 C 12.34375 1.800781 11.824219 0.960938 11.085938 0.890625 C 11.054688 0.890625 11.023438 0.886719 10.992188 0.886719 Z M 10.992188 0.886719 "/>
</g>
<path style=" stroke:none;fill-rule:nonzero;fill:rgb(0%,0%,0%);fill-opacity:1;" d="M 7.289062 1.714844 C 7.253906 1.714844 7.214844 1.714844 7.175781 1.722656 C 6.605469 1.808594 6.246094 2.53125 6.371094 3.335938 C 6.484375 4.085938 6.984375 4.640625 7.511719 4.640625 C 7.550781 4.640625 7.589844 4.636719 7.625 4.632812 C 8.195312 4.546875 8.558594 3.824219 8.433594 3.019531 C 8.316406 2.269531 7.820312 1.714844 7.289062 1.714844 Z M 7.289062 1.714844 "/>
<path style=" stroke:none;fill-rule:nonzero;fill:rgb(0%,0%,0%);fill-opacity:1;" d="M 4.394531 3.265625 C 4.25 3.265625 4.113281 3.300781 3.992188 3.378906 C 3.546875 3.648438 3.472656 4.335938 3.824219 4.914062 C 4.078125 5.332031 4.488281 5.574219 4.863281 5.574219 C 5.007812 5.574219 5.144531 5.539062 5.265625 5.464844 C 5.710938 5.195312 5.785156 4.507812 5.433594 3.929688 C 5.179688 3.511719 4.769531 3.265625 4.394531 3.265625 Z M 4.394531 3.265625 "/>
<g clip-path="url(#clip6)" clip-rule="nonzero">
<path style=" stroke:none;fill-rule:nonzero;fill:rgb(0%,0%,0%);fill-opacity:1;" d="M 2.289062 5.027344 C 2.164062 5.027344 2.042969 5.058594 1.933594 5.125 C 1.542969 5.363281 1.488281 5.980469 1.808594 6.5 C 2.042969 6.878906 2.410156 7.097656 2.746094 7.097656 C 2.871094 7.097656 2.992188 7.066406 3.101562 7 C 3.492188 6.761719 3.550781 6.144531 3.226562 5.625 C 2.992188 5.246094 2.625 5.027344 2.289062 5.027344 Z M 2.289062 5.027344 "/>
</g>
</g>
</svg>
