<?xml version="1.0" encoding="UTF-8"?>
<svg xmlns="http://www.w3.org/2000/svg" xmlns:xlink="http://www.w3.org/1999/xlink" width="37.5pt" height="37.499999pt" viewBox="0 0 37.5 37.499999" version="1.2">
<defs>
<clipPath id="clip1">
  <path d="M 0 8 L 37.007812 8 L 37.007812 37.007812 L 0 37.007812 Z M 0 8 "/>
</clipPath>
</defs>
<g id="surface1">
<path style=" stroke:none;fill-rule:nonzero;fill:rgb(6.269836%,5.879211%,5.099487%);fill-opacity:1;" d="M 26.832031 1.277344 C 27.519531 1.277344 28.078125 1.839844 28.078125 2.527344 L 28.078125 2.695312 C 28.078125 3.042969 28.359375 3.320312 28.703125 3.320312 C 29.046875 3.320312 29.324219 3.042969 29.324219 2.695312 L 29.324219 2.527344 C 29.324219 1.839844 29.886719 1.277344 30.574219 1.277344 C 31.261719 1.277344 31.820312 1.839844 31.820312 2.527344 C 31.808594 3.308594 29.410156 6.179688 28.710938 6.269531 C 27.996094 6.179688 25.597656 3.308594 25.582031 2.527344 C 25.582031 1.839844 26.144531 1.277344 26.832031 1.277344 Z M 28.703125 7.519531 C 30.125 7.519531 33.070312 3.882812 33.070312 2.527344 C 33.070312 1.148438 31.949219 0.03125 30.574219 0.03125 C 29.828125 0.03125 29.160156 0.359375 28.703125 0.878906 C 28.242188 0.359375 27.574219 0.03125 26.832031 0.03125 C 25.453125 0.03125 24.335938 1.148438 24.335938 2.527344 C 24.335938 3.882812 27.28125 7.519531 28.703125 7.519531 "/>
<path style=" stroke:none;fill-rule:nonzero;fill:rgb(6.269836%,5.879211%,5.099487%);fill-opacity:1;" d="M 10.605469 29.355469 L 9.359375 29.355469 L 9.359375 25.613281 L 10.605469 25.613281 Z M 8.113281 29.355469 L 6.863281 29.355469 L 6.863281 25.613281 L 8.113281 25.613281 Z M 11.230469 24.367188 L 6.238281 24.367188 C 5.894531 24.367188 5.617188 24.644531 5.617188 24.988281 L 5.617188 29.980469 C 5.617188 30.324219 5.894531 30.605469 6.238281 30.605469 L 11.230469 30.605469 C 11.574219 30.605469 11.855469 30.324219 11.855469 29.980469 L 11.855469 24.988281 C 11.855469 24.644531 11.574219 24.367188 11.230469 24.367188 "/>
<path style=" stroke:none;fill-rule:nonzero;fill:rgb(6.269836%,5.879211%,5.099487%);fill-opacity:1;" d="M 26.832031 25.613281 L 28.078125 25.613281 L 28.078125 29.355469 L 26.832031 29.355469 Z M 29.324219 25.613281 L 30.574219 25.613281 L 30.574219 29.355469 L 29.324219 29.355469 Z M 26.207031 30.605469 L 31.199219 30.605469 C 31.542969 30.605469 31.820312 30.324219 31.820312 29.980469 L 31.820312 24.988281 C 31.820312 24.644531 31.542969 24.367188 31.199219 24.367188 L 26.207031 24.367188 C 25.863281 24.367188 25.582031 24.644531 25.582031 24.988281 L 25.582031 29.980469 C 25.582031 30.324219 25.863281 30.605469 26.207031 30.605469 "/>
<g clip-path="url(#clip1)" clip-rule="nonzero">
<path style=" stroke:none;fill-rule:nonzero;fill:rgb(6.269836%,5.879211%,5.099487%);fill-opacity:1;" d="M 34.859375 22.316406 L 19.058594 11.988281 C 18.957031 11.921875 18.839844 11.886719 18.71875 11.886719 C 18.597656 11.886719 18.480469 11.921875 18.378906 11.988281 L 2.578125 22.316406 L 1.609375 21.347656 L 18.71875 10.136719 L 35.828125 21.347656 Z M 34.316406 36.222656 L 23.085938 36.222656 L 23.085938 26.863281 C 23.085938 24.453125 21.125 22.492188 18.71875 22.492188 C 16.3125 22.492188 14.351562 24.453125 14.351562 26.863281 L 14.351562 36.222656 L 3.121094 36.222656 L 3.121094 23.453125 L 18.71875 13.257812 L 34.316406 23.453125 Z M 21.839844 36.222656 L 15.597656 36.222656 L 15.597656 26.863281 C 15.597656 25.140625 16.996094 23.742188 18.71875 23.742188 C 20.441406 23.742188 21.839844 25.140625 21.839844 26.863281 Z M 26.832031 10.015625 L 30.574219 10.015625 L 30.574219 16.414062 L 26.832031 13.957031 Z M 37.15625 20.722656 L 31.820312 17.230469 L 31.820312 10.015625 L 32.445312 10.015625 C 32.789062 10.015625 33.070312 9.734375 33.070312 9.390625 C 33.070312 9.046875 32.789062 8.765625 32.445312 8.765625 L 24.957031 8.765625 C 24.613281 8.765625 24.335938 9.046875 24.335938 9.390625 C 24.335938 9.734375 24.613281 10.015625 24.957031 10.015625 L 25.582031 10.015625 L 25.582031 13.140625 L 19.058594 8.867188 C 18.851562 8.734375 18.585938 8.734375 18.378906 8.867188 L 0.28125 20.722656 C 0.125 20.828125 0.0234375 20.996094 0.00390625 21.183594 C -0.015625 21.371094 0.0507812 21.554688 0.183594 21.6875 L 1.871094 23.375 L 1.871094 36.84375 C 1.871094 37.1875 2.152344 37.46875 2.496094 37.46875 L 34.941406 37.46875 C 35.285156 37.46875 35.566406 37.1875 35.566406 36.84375 L 35.566406 23.375 L 37.253906 21.6875 C 37.386719 21.554688 37.453125 21.371094 37.433594 21.183594 C 37.414062 20.996094 37.3125 20.828125 37.15625 20.722656 "/>
</g>
<path style=" stroke:none;fill-rule:nonzero;fill:rgb(6.269836%,5.879211%,5.099487%);fill-opacity:1;" d="M 17.472656 29.355469 C 17.128906 29.355469 16.847656 29.636719 16.847656 29.980469 C 16.847656 30.324219 17.128906 30.605469 17.472656 30.605469 C 17.816406 30.605469 18.09375 30.324219 18.09375 29.980469 C 18.09375 29.636719 17.816406 29.355469 17.472656 29.355469 "/>
</g>
</svg>
