<?xml version="1.0" encoding="UTF-8"?>
<svg xmlns="http://www.w3.org/2000/svg" xmlns:xlink="http://www.w3.org/1999/xlink" width="37.5pt" height="37.499999pt" viewBox="0 0 37.5 37.499999" version="1.2">
<defs>
<clipPath id="clip1">
  <path d="M 0 2.671875 L 37.007812 2.671875 L 37.007812 33 L 0 33 Z M 0 2.671875 "/>
</clipPath>
<clipPath id="clip2">
  <path d="M 0 2.671875 L 37.007812 2.671875 L 37.007812 33.097656 L 0 33.097656 Z M 0 2.671875 "/>
</clipPath>
</defs>
<g id="surface1">
<g clip-path="url(#clip1)" clip-rule="nonzero">
<path style=" stroke:none;fill-rule:nonzero;fill:rgb(100%,100%,100%);fill-opacity:1;" d="M 21.855469 21.945312 L 21.855469 22.300781 C 21.855469 22.527344 21.667969 22.710938 21.4375 22.710938 L 16.078125 22.722656 C 15.847656 22.722656 15.660156 22.539062 15.660156 22.3125 L 15.660156 21.945312 C 7.652344 21.648438 0.460938 20.191406 0.457031 17.601562 L 0.4375 8.832031 L 0.4375 8.816406 L 0.457031 16.777344 C 0.460938 19.367188 7.652344 20.824219 15.65625 21.121094 L 15.65625 19.9375 C 15.65625 19.710938 15.839844 19.527344 16.070312 19.527344 L 21.429688 19.515625 C 21.660156 19.515625 21.847656 19.699219 21.851562 19.925781 L 21.851562 21.121094 C 29.835938 20.824219 37.007812 19.367188 37.035156 16.726562 L 37.035156 17.53125 C 37.042969 20.183594 29.855469 21.644531 21.855469 21.945312 Z M 14.214844 5.648438 C 14.214844 4.664062 14.960938 3.863281 15.878906 3.863281 L 22.351562 3.863281 C 23.273438 3.863281 24.015625 4.664062 24.015625 5.648438 L 24.015625 6.238281 L 14.214844 6.257812 Z M 37.109375 7.941406 C 37.109375 7.785156 37.09375 7.640625 37.054688 7.5 C 36.851562 6.761719 36.164062 6.21875 35.347656 6.21875 L 24.9375 6.238281 L 24.9375 5.378906 C 24.9375 4.042969 24.0625 2.957031 22.980469 2.957031 L 15.382812 2.957031 C 14.304688 2.957031 13.425781 4.042969 13.425781 5.378906 L 13.425781 6.261719 L 2.101562 6.28125 C 1.945312 6.28125 1.792969 6.300781 1.648438 6.339844 C 0.894531 6.535156 0.339844 7.207031 0.34375 8.007812 L 0.386719 31.101562 C 0.386719 31.257812 0.40625 31.402344 0.449219 31.542969 C 0.648438 32.28125 1.335938 32.824219 2.152344 32.824219 L 35.402344 32.761719 C 35.554688 32.761719 35.707031 32.742188 35.851562 32.703125 C 36.605469 32.507812 37.160156 31.835938 37.15625 31.035156 L 37.109375 7.941406 "/>
</g>
<g clip-path="url(#clip2)" clip-rule="nonzero">
<path style=" stroke:none;fill-rule:nonzero;fill:rgb(13.729858%,12.159729%,12.548828%);fill-opacity:1;" d="M 21.855469 21.945312 L 21.566406 21.945312 L 21.566406 22.300781 C 21.566406 22.339844 21.554688 22.371094 21.53125 22.394531 C 21.503906 22.417969 21.472656 22.433594 21.4375 22.433594 L 16.078125 22.441406 C 16.039062 22.441406 16.007812 22.429688 15.984375 22.402344 C 15.957031 22.378906 15.945312 22.347656 15.945312 22.3125 L 15.945312 21.945312 C 15.945312 21.792969 15.824219 21.671875 15.667969 21.664062 C 11.679688 21.519531 7.894531 21.078125 5.128906 20.363281 C 3.746094 20.007812 2.621094 19.578125 1.859375 19.097656 C 1.480469 18.859375 1.195312 18.605469 1.011719 18.355469 C 0.828125 18.105469 0.742188 17.859375 0.742188 17.601562 L 0.722656 8.835938 L 0.722656 8.824219 L 0.4375 8.816406 L 0.152344 8.816406 L 0.171875 16.777344 C 0.171875 17.167969 0.308594 17.535156 0.550781 17.859375 C 0.761719 18.144531 1.046875 18.402344 1.398438 18.640625 C 2.011719 19.058594 2.820312 19.417969 3.789062 19.734375 C 5.238281 20.207031 7.046875 20.578125 9.074219 20.855469 C 11.097656 21.132812 13.339844 21.3125 15.644531 21.398438 C 15.722656 21.402344 15.796875 21.375 15.855469 21.320312 C 15.910156 21.269531 15.941406 21.195312 15.941406 21.121094 L 15.941406 19.9375 C 15.941406 19.898438 15.957031 19.867188 15.980469 19.84375 C 16.003906 19.820312 16.035156 19.804688 16.070312 19.804688 L 21.429688 19.796875 C 21.46875 19.796875 21.5 19.8125 21.527344 19.835938 C 21.550781 19.859375 21.566406 19.890625 21.566406 19.925781 L 21.566406 21.121094 C 21.566406 21.195312 21.601562 21.269531 21.65625 21.320312 C 21.710938 21.375 21.785156 21.402344 21.863281 21.398438 C 25.871094 21.25 29.675781 20.8125 32.5 20.070312 C 33.914062 19.699219 35.085938 19.257812 35.929688 18.71875 C 36.351562 18.449219 36.691406 18.15625 36.933594 17.824219 C 37.175781 17.492188 37.316406 17.121094 37.320312 16.726562 L 36.75 16.726562 L 36.75 17.535156 L 36.75 17.53125 L 36.894531 17.53125 L 36.75 17.53125 L 36.894531 17.53125 L 36.75 17.53125 L 36.75 17.535156 C 36.75 17.804688 36.660156 18.054688 36.476562 18.3125 C 36.316406 18.535156 36.078125 18.761719 35.769531 18.976562 C 35.226562 19.351562 34.460938 19.703125 33.527344 20.011719 C 32.128906 20.472656 30.351562 20.847656 28.351562 21.121094 C 26.351562 21.398438 24.132812 21.582031 21.84375 21.664062 C 21.691406 21.671875 21.566406 21.792969 21.566406 21.945312 L 21.855469 21.945312 L 21.863281 22.222656 C 25.878906 22.074219 29.6875 21.632812 32.519531 20.890625 C 33.933594 20.519531 35.105469 20.074219 35.945312 19.535156 C 36.363281 19.261719 36.703125 18.96875 36.945312 18.636719 C 37.183594 18.304688 37.320312 17.929688 37.320312 17.535156 L 37.179688 17.535156 L 37.320312 17.539062 L 37.320312 17.535156 L 37.179688 17.535156 L 37.320312 17.539062 L 37.320312 16.726562 C 37.320312 16.570312 37.191406 16.449219 37.035156 16.445312 C 36.878906 16.445312 36.75 16.570312 36.75 16.722656 C 36.746094 16.992188 36.65625 17.242188 36.46875 17.5 C 36.304688 17.722656 36.066406 17.945312 35.753906 18.160156 C 35.210938 18.535156 34.445312 18.886719 33.511719 19.191406 C 32.113281 19.652344 30.335938 20.023438 28.339844 20.300781 C 26.34375 20.574219 24.125 20.753906 21.84375 20.839844 L 21.851562 21.121094 L 22.136719 21.121094 L 22.136719 19.925781 C 22.136719 19.734375 22.054688 19.5625 21.925781 19.4375 C 21.800781 19.3125 21.621094 19.238281 21.429688 19.238281 L 16.070312 19.246094 C 15.875 19.246094 15.699219 19.328125 15.574219 19.449219 C 15.449219 19.574219 15.371094 19.75 15.371094 19.9375 L 15.371094 21.121094 L 15.65625 21.121094 L 15.667969 20.839844 C 11.679688 20.695312 7.894531 20.257812 5.128906 19.539062 C 3.746094 19.183594 2.621094 18.753906 1.859375 18.273438 C 1.480469 18.035156 1.195312 17.78125 1.011719 17.53125 C 0.828125 17.28125 0.742188 17.035156 0.742188 16.777344 L 0.722656 8.816406 C 0.722656 8.664062 0.597656 8.539062 0.441406 8.539062 C 0.285156 8.535156 0.15625 8.660156 0.152344 8.8125 L 0.152344 8.835938 L 0.171875 17.601562 C 0.171875 17.992188 0.308594 18.359375 0.550781 18.683594 C 0.761719 18.96875 1.046875 19.226562 1.398438 19.464844 C 2.011719 19.882812 2.820312 20.242188 3.789062 20.558594 C 5.238281 21.03125 7.050781 21.402344 9.074219 21.679688 C 11.101562 21.957031 13.339844 22.136719 15.648438 22.222656 L 15.660156 21.945312 L 15.371094 21.945312 L 15.371094 22.3125 C 15.371094 22.503906 15.453125 22.675781 15.582031 22.800781 C 15.707031 22.925781 15.886719 23 16.078125 23 L 21.4375 22.992188 C 21.632812 22.992188 21.808594 22.914062 21.933594 22.789062 C 22.0625 22.664062 22.140625 22.488281 22.140625 22.300781 L 22.140625 21.945312 L 21.855469 21.945312 L 21.863281 22.222656 Z M 14.214844 5.648438 L 14.5 5.648438 C 14.5 5.222656 14.660156 4.847656 14.914062 4.574219 C 15.167969 4.304688 15.503906 4.144531 15.878906 4.144531 L 22.351562 4.144531 C 22.726562 4.144531 23.066406 4.304688 23.320312 4.574219 C 23.570312 4.847656 23.730469 5.222656 23.730469 5.648438 L 23.730469 5.960938 L 14.5 5.980469 L 14.5 5.648438 L 13.929688 5.648438 L 13.929688 6.257812 C 13.929688 6.332031 13.960938 6.402344 14.015625 6.457031 C 14.066406 6.507812 14.140625 6.539062 14.214844 6.539062 L 24.015625 6.519531 C 24.175781 6.519531 24.300781 6.394531 24.300781 6.238281 L 24.300781 5.648438 C 24.300781 5.085938 24.089844 4.574219 23.742188 4.199219 C 23.390625 3.824219 22.898438 3.585938 22.351562 3.585938 L 15.878906 3.585938 C 15.332031 3.585938 14.839844 3.824219 14.492188 4.199219 C 14.140625 4.574219 13.929688 5.085938 13.929688 5.648438 Z M 37.109375 7.941406 L 37.394531 7.941406 C 37.394531 7.765625 37.375 7.59375 37.328125 7.421875 L 37.054688 7.5 L 37.328125 7.425781 C 37.210938 6.996094 36.953125 6.625 36.605469 6.363281 C 36.261719 6.097656 35.820312 5.9375 35.347656 5.9375 L 25.222656 5.957031 L 25.222656 5.378906 C 25.222656 4.652344 24.984375 3.984375 24.589844 3.492188 C 24.390625 3.246094 24.148438 3.042969 23.878906 2.902344 C 23.605469 2.757812 23.300781 2.675781 22.980469 2.675781 L 15.382812 2.675781 C 15.0625 2.675781 14.757812 2.757812 14.488281 2.902344 C 14.078125 3.113281 13.742188 3.464844 13.507812 3.894531 C 13.277344 4.324219 13.140625 4.832031 13.140625 5.378906 L 13.140625 5.980469 L 2.097656 6.003906 C 1.921875 6.003906 1.746094 6.027344 1.574219 6.070312 L 1.578125 6.070312 C 1.136719 6.183594 0.757812 6.4375 0.488281 6.777344 C 0.21875 7.113281 0.0546875 7.542969 0.0585938 8.007812 L 0.328125 8.007812 L 0.0585938 8.003906 L 0.0585938 8.007812 L 0.328125 8.007812 L 0.0585938 8.003906 L 0.25 8.007812 L 0.0585938 8.003906 L 0.25 8.007812 L 0.0585938 8.003906 C 0.0585938 8.007812 0.0546875 8.027344 0.0625 8.0625 L 0.34375 8.007812 L 0.0585938 8.007812 L 0.101562 31.105469 L 0.101562 31.101562 C 0.101562 31.28125 0.125 31.453125 0.171875 31.617188 L 0.449219 31.542969 L 0.171875 31.617188 C 0.289062 32.042969 0.546875 32.417969 0.890625 32.679688 C 1.238281 32.945312 1.675781 33.105469 2.148438 33.105469 L 2.152344 32.855469 L 2.140625 33.101562 L 2.148438 33.105469 L 2.152344 32.855469 L 2.140625 33.101562 L 2.152344 33.105469 L 35.402344 33.042969 C 35.582031 33.042969 35.757812 33.015625 35.921875 32.976562 L 35.925781 32.972656 C 36.359375 32.859375 36.738281 32.609375 37.011719 32.269531 C 37.28125 31.933594 37.441406 31.507812 37.441406 31.042969 L 37.441406 31.039062 L 37.328125 31.039062 L 37.441406 31.042969 L 37.441406 31.039062 L 37.328125 31.039062 L 37.441406 31.042969 L 37.441406 31.035156 L 37.394531 7.941406 L 36.824219 7.941406 L 36.871094 31.035156 L 37.15625 31.035156 L 36.871094 31.027344 C 36.871094 31.039062 36.871094 31.042969 36.871094 31.042969 C 36.871094 31.378906 36.757812 31.683594 36.5625 31.925781 C 36.367188 32.171875 36.089844 32.351562 35.777344 32.433594 C 35.65625 32.464844 35.53125 32.484375 35.398438 32.484375 L 35.402344 32.484375 L 2.152344 32.546875 L 2.152344 32.824219 L 2.164062 32.546875 L 2.148438 32.546875 L 2.148438 32.648438 L 2.148438 32.546875 L 2.148438 32.648438 L 2.148438 32.546875 C 1.808594 32.546875 1.496094 32.429688 1.242188 32.242188 C 0.992188 32.050781 0.808594 31.78125 0.722656 31.472656 L 0.722656 31.46875 C 0.691406 31.355469 0.671875 31.230469 0.671875 31.101562 L 0.628906 8.007812 C 0.628906 7.992188 0.625 7.972656 0.621094 7.957031 L 0.347656 8.007812 L 0.628906 8.003906 C 0.628906 7.996094 0.625 7.976562 0.621094 7.957031 L 0.347656 8.007812 L 0.628906 8.003906 L 0.351562 8.007812 L 0.628906 8.011719 L 0.628906 8.003906 L 0.351562 8.007812 L 0.628906 8.011719 L 0.628906 8.007812 C 0.628906 7.671875 0.742188 7.363281 0.9375 7.117188 C 1.132812 6.875 1.40625 6.691406 1.722656 6.609375 C 1.84375 6.578125 1.96875 6.5625 2.101562 6.5625 L 13.429688 6.539062 C 13.585938 6.539062 13.710938 6.414062 13.710938 6.261719 L 13.710938 5.378906 C 13.710938 4.769531 13.914062 4.222656 14.222656 3.839844 C 14.378906 3.648438 14.5625 3.496094 14.757812 3.394531 C 14.953125 3.289062 15.160156 3.234375 15.382812 3.234375 L 22.980469 3.234375 C 23.203125 3.234375 23.410156 3.289062 23.609375 3.394531 C 23.902344 3.546875 24.164062 3.8125 24.351562 4.15625 C 24.539062 4.5 24.652344 4.921875 24.652344 5.378906 L 24.652344 6.238281 C 24.652344 6.3125 24.683594 6.382812 24.734375 6.4375 C 24.789062 6.488281 24.863281 6.519531 24.9375 6.519531 L 35.351562 6.496094 L 35.347656 6.496094 C 35.691406 6.496094 36.003906 6.609375 36.257812 6.800781 C 36.507812 6.992188 36.695312 7.261719 36.777344 7.570312 L 36.777344 7.574219 C 36.8125 7.683594 36.824219 7.808594 36.824219 7.941406 L 37.109375 7.941406 "/>
</g>
</g>
</svg>
